Coordinates
version=1
nRows=11
nColumns=40
inDegrees=yes

Units are S.I. units (second, meters, Newtons, ...)
Angles are in degrees.

endheader
time	pelvis_tilt	pelvis_list	pelvis_rotation	pelvis_tx	pelvis_ty	pelvis_tz	hip_flexion_r	hip_adduction_r	hip_rotation_r	knee_angle_r	knee_angle_r_beta	ankle_angle_r	subtalar_angle_r	mtp_angle_r	hip_flexion_l	hip_adduction_l	hip_rotation_l	knee_angle_l	knee_angle_l_beta	ankle_angle_l	subtalar_angle_l	mtp_angle_l	lumbar_extension	lumbar_bending	lumbar_rotation	arm_flex_r	arm_add_r	arm_rot_r	elbow_flex_r	pro_sup_r	wrist_flex_r	wrist_dev_r	arm_flex_l	arm_add_l	arm_rot_l	elbow_flex_l	pro_sup_l	wrist_flex_l	wrist_dev_l
     31.00500000	     -3.07960853	     -5.11954287	      0.33835661	      0.92573779	      0.91914734	      0.52820202	     15.33865217	      6.55200299	     -9.37087917	     25.51636456	     25.51636456	     14.62500740	    -11.94932101	     -0.69764664	     29.59067136	    -12.48947117	      2.67321998	     64.28812622	     64.28812622	     12.36560117	    -19.56784307	     21.98602368	    -11.59375446	      6.66202759	     -0.60906374	     14.66211747	    -14.30337705	    -11.47924551	     41.32017653	     45.91945767	      0.00000000	      0.00000000	     17.18924677	     -9.86361690	     -7.58871612	     50.15462149	     47.16674745	      0.00000000	      0.00000000
     31.02400000	     -2.94644461	     -5.05036453	      1.07225827	      0.92402160	      0.91802072	      0.52916438	     15.33244292	      6.52721815	     -9.51926869	     26.25946479	     26.25946479	     15.32759800	    -12.82161456	      0.17287067	     30.80295041	    -12.57824017	      2.29024481	     62.71242835	     62.71242835	     13.52059966	    -19.58371824	     22.71784267	    -11.79576172	      6.37010928	     -0.36863119	     16.37017415	    -14.59404201	    -10.56357994	     43.73606840	     45.78594293	      0.00000000	      0.00000000	     16.69635318	     -8.96936775	     -5.54167671	     43.62840908	     46.89645752	      0.00000000	      0.00000000
     31.04300000	     -2.89210120	     -4.87059687	      1.81022627	      0.92225072	      0.91702216	      0.52978544	     15.34247106	      6.31842760	     -9.80441935	     26.88301247	     26.88301247	     15.76801614	    -13.49560254	      0.21142956	     31.81995545	    -12.41360397	      1.82342046	     60.35365285	     60.35365285	     14.30192264	    -19.57797216	     22.51901771	    -12.03341034	      5.98563855	     -1.07389477	     18.87877127	    -14.09219360	    -10.51386802	     45.90447664	     45.71527161	      0.00000000	      0.00000000	     14.35781850	     -8.59384006	     -4.83262941	     40.99136197	     46.77192901	      0.00000000	      0.00000000
     31.06200000	     -2.94063423	     -4.73118906	      2.49318699	      0.92047734	      0.91629834	      0.53016341	     15.31433388	      6.13762097	    -10.14777323	     27.25733656	     27.25733656	     16.36319411	    -13.78733093	      0.91649035	     32.64599211	    -12.14816830	      1.36946828	     57.28446489	     57.28446489	     14.51900205	    -19.53877525	     21.28626652	    -12.11950155	      5.67518977	     -0.62264659	     20.20772595	    -14.60670396	     -9.73332438	     49.55391368	     45.55271301	      0.00000000	      0.00000000	     13.67156265	     -7.84445622	     -2.31636848	     35.23308762	     46.42065970	      0.00000000	      0.00000000
     31.08100000	     -3.03866489	     -4.43006833	      3.12812202	      0.91867933	      0.91597736	      0.53025272	     15.21930483	      5.77111935	    -10.47050417	     27.42669964	     27.42669964	     16.67501348	    -14.07955858	      0.89963812	     33.18663833	    -11.46553945	      1.07149519	     53.63453284	     53.63453284	     14.68195825	    -19.45346290	     20.95373653	    -12.23667027	      5.15544817	     -1.04601873	     22.67665935	    -14.27005124	     -9.78920612	     51.69928766	     45.49093448	      0.00000000	      0.00000000	     11.25125893	     -7.50262243	     -1.76655927	     33.33224803	     46.30433412	      0.00000000	      0.00000000
     31.10000000	     -3.27013137	     -4.27966378	      3.73329597	      0.91690634	      0.91574932	      0.53012115	     15.13569601	      5.51065639	    -10.98381000	     27.35526589	     27.35526589	     16.98642050	    -13.93903091	      1.01344583	     33.55790276	    -10.80796716	      0.99407058	     49.43711265	     49.43711265	     13.41959314	    -19.32414184	     17.44116038	    -12.17640000	      4.89644847	     -0.66545645	     24.06511225	    -14.82790752	     -9.20517036	     55.88994247	     45.33358437	      0.00000000	      0.00000000	      9.80815496	     -7.04692184	      0.51460448	     29.63514528	     45.93384791	      0.00000000	      0.00000000
     31.11900000	     -3.52517995	     -3.99336511	      4.24421813	      0.91517275	      0.91597466	      0.52973741	     14.95322496	      5.12699272	    -11.34471331	     27.08683910	     27.08683910	     17.14909484	    -13.85271697	      0.96179741	     33.70827482	     -9.81787582	      1.24490935	     45.10423140	     45.10423140	     12.83179722	    -19.03856088	     16.92538858	    -12.11992581	      4.47407627	     -0.89946599	     26.52964170	    -14.62056262	     -9.29421795	     58.31413458	     45.26739762	      0.00000000	      0.00000000	      7.32983081	     -6.83384081	      1.09629461	     28.13820614	     45.79881664	      0.00000000	      0.00000000
     31.13800000	     -3.88886359	     -3.82165983	      4.67733313	      0.91363711	      0.91629790	      0.52936180	     14.73942366	      4.83873687	    -11.87755210	     26.56168270	     26.56168270	     17.18180743	    -13.37530056	      0.57489366	     33.59999816	     -9.04162247	      1.46978147	     40.33079973	     40.33079973	     10.51959790	    -18.54979181	     12.27330244	    -11.93994034	      4.13943821	     -0.36184147	     27.85130932	    -15.31168050	     -8.85876154	     62.76099949	     45.12250658	      0.00000000	      0.00000000	      5.16805180	     -6.73475647	      2.93229389	     26.89165176	     45.44484636	      0.00000000	      0.00000000
     31.15700000	     -4.19502625	     -3.66442959	      5.01335987	      0.91228463	      0.91696397	      0.52889797	     14.32779673	      4.63658053	    -12.23192358	     25.78849218	     25.78849218	     17.08611033	    -13.01852699	      0.16629111	     33.28069522	     -8.30436403	      1.86435086	     35.73737111	     35.73737111	      8.77887307	    -17.59679310	      9.22117657	    -11.81289619	      3.82585064	      0.16358415	     29.66558931	    -15.81185663	     -8.89741593	     66.20137373	     45.04949606	      0.00000000	      0.00000000	      2.76094783	     -6.89921373	      5.01354653	     26.56032711	     45.04286528	      0.00000000	      0.00000000
     31.17600000	     -4.60542564	     -3.52279369	      5.28197057	      0.91104125	      0.91771204	      0.52839038	     13.96222670	      4.47705271	    -12.48759112	     24.90189088	     24.90189088	     17.06038383	    -12.63419831	      0.21112294	     33.11723072	     -7.67593127	      2.21155755	     31.74132461	     31.74132461	      8.44867483	    -15.66184649	      9.54368834	    -11.47757558	      3.48541419	      0.49390128	     32.03302696	    -15.98763103	     -9.00260079	     68.07382323	     45.00475139	      0.00000000	      0.00000000	      0.49154574	     -6.91221106	      5.25672085	     25.82145869	     44.96393485	      0.00000000	      0.00000000
     31.19500000	     -4.92116174	     -3.45793238	      5.52347331	      0.91007894	      0.91863014	      0.52776644	     13.38176122	      4.38905279	    -12.89409790	     23.84356604	     23.84356604	     17.00863311	    -11.88415208	      0.12199926	     32.82005010	     -7.24615842	      2.41117503	     28.16550758	     28.16550758	      8.16495618	    -13.39316551	      9.49517458	    -11.27264426	      3.26761672	      0.65791948	     34.32493011	    -16.07151177	     -8.88524333	     70.76561397	     44.92618522	      0.00000000	      0.00000000	     -1.88636752	     -7.06395692	      5.52827086	     25.48928696	     44.87314113	      0.00000000	      0.00000000
